<?xml version="1.0" encoding="UTF-8"?>
<svg version="1.1" xmlns="http://www.w3.org/2000/svg" width="1600" height="1600">
<path d="M0 0 C528 0 1056 0 1600 0 C1600 528 1600 1056 1600 1600 C1072 1600 544 1600 0 1600 C0 1072 0 544 0 0 Z " fill="#F6F6F6" transform="translate(0,0)"/>
<path d="M0 0 C0.90045044 -0.0049649 1.80090088 -0.00992981 2.7286377 -0.01504517 C5.68767076 -0.02956637 8.64665014 -0.03645387 11.60571289 -0.04199219 C12.62525118 -0.04481956 13.64478947 -0.04764694 14.69522285 -0.05056 C20.09645976 -0.06551604 25.49767023 -0.07476669 30.89892578 -0.07910156 C36.43264173 -0.08456426 41.96610891 -0.10855608 47.49974728 -0.13707352 C51.79389614 -0.15585496 56.0879871 -0.16091379 60.38217354 -0.16243744 C62.41958531 -0.16543237 64.45699685 -0.17335153 66.4943676 -0.18662262 C81.93932116 -0.28000473 96.92384074 0.65487341 111.64086914 5.78613281 C112.74350098 6.16572144 112.74350098 6.16572144 113.8684082 6.55297852 C128.05854869 11.65700792 140.3291305 19.25074931 151.64086914 29.16113281 C152.45942383 29.87785156 153.27797852 30.59457031 154.12133789 31.33300781 C174.84214881 50.84357668 186.80143614 78.99762789 187.87915039 107.21191406 C188.42216394 133.33086568 180.43884512 158.04530286 174.0559082 183.14477539 C167.64049012 208.37352641 161.24824021 233.6081005 154.92199707 258.859375 C154.24441937 261.5639046 153.56577715 264.26816312 152.8861084 266.97216797 C149.52157754 280.3612613 146.19622296 293.7513317 143.21942139 307.23286438 C142.19644295 311.84661735 141.05404434 316.37929363 139.70336914 320.91113281 C138.26627109 325.76827977 137.05318757 330.6312358 135.95050049 335.57165527 C132.85964028 349.4035701 129.42027611 363.14232686 125.93774414 376.87988281 C125.6764868 377.91095406 125.41522945 378.9420253 125.14605522 380.00434113 C122.9576562 388.63744476 120.76273318 397.26888713 118.5668335 405.90008545 C116.66615926 413.37163801 114.76863107 420.84398011 112.87524414 428.31738281 C112.61047775 429.36183563 112.34571136 430.40628845 112.07292175 431.48239136 C107.85506944 448.14004854 103.7978014 464.83175165 99.89910889 481.5670166 C99.52337073 483.17204558 99.14726375 484.77698827 98.77075195 486.38183594 C98.59393261 487.13977699 98.41711327 487.89771805 98.23493576 488.67862701 C96.83171362 494.59655286 95.13163736 500.38156648 93.26165771 506.17077637 C92.03682897 512.07081171 93.89359608 516.12418595 96.89477539 521.14160156 C97.2270816 521.70319977 97.55938782 522.26479797 97.90176392 522.84341431 C98.99356692 524.68384624 100.09838641 526.51608919 101.20336914 528.34863281 C101.9748608 529.64391277 102.74543622 530.93973886 103.51513672 532.23608398 C105.10256142 534.90646905 106.69510279 537.57369182 108.29223633 540.23828125 C111.82680387 546.13671538 115.32488328 552.05670157 118.82836914 557.97363281 C119.4891748 559.08714111 120.14998047 560.20064941 120.83081055 561.34790039 C126.27451539 570.52333934 131.65601518 579.73404291 137.02368164 588.95410156 C142.78321252 598.84505544 148.58056586 608.71389639 154.37185669 618.58627319 C156.8961096 622.88983533 159.4175335 627.19504623 161.93774414 631.50097656 C169.45354704 644.33978002 176.99781247 657.16063628 184.59521484 669.95141602 C188.17643096 675.98558075 191.74042974 682.02912142 195.28149414 688.08691406 C195.66785034 688.74758881 196.05420654 689.40826355 196.45227051 690.08895874 C198.32370699 693.28990596 200.19293259 696.49211454 202.05883789 699.69628906 C202.73716579 700.85778099 203.41554844 702.01924094 204.09399414 703.18066406 C204.68341797 704.19233643 205.2728418 705.20400879 205.88012695 706.24633789 C207.61086022 709.20839503 207.61086022 709.20839503 209.73266602 712.01904297 C212.02093956 715.78696525 212.8564628 719.13495623 213.71899414 723.41503906 C213.89122498 724.21551163 214.06345581 725.01598419 214.24090576 725.8407135 C214.80288681 728.46596377 215.3467451 731.09462897 215.89086914 733.72363281 C216.28410672 735.57400587 216.67865735 737.42410032 217.07446289 739.27392578 C217.88385481 743.065521 218.68641 746.85845658 219.48266602 750.65283203 C221.01496005 757.95188383 222.58113865 765.24353913 224.15487671 772.53375244 C224.48067092 774.04367818 224.80588027 775.55373022 225.13052368 777.06390381 C227.84113279 789.66925331 230.7187995 802.23150805 233.64724731 814.78781128 C236.79917326 828.31971329 239.75529591 841.88657136 242.63571167 855.47860718 C245.71450629 869.99412396 248.95826924 884.4666114 252.27584839 898.92926025 C255.1507398 911.472556 257.92438995 924.03226098 260.58972168 936.62173462 C263.7033287 951.32068371 266.89031094 966.00168977 270.24511719 980.64767456 C270.66851016 982.50053904 271.08870917 984.35413689 271.50537109 986.20852661 C273.60809016 995.54840408 275.82090629 1004.52069228 279.53710938 1013.36865234 C287.15329524 1032.63738357 284.90891106 1054.22855117 277.10180664 1073.00488281 C268.05332601 1092.38835792 253.07334187 1106.93323923 233.14086914 1114.97363281 C230.98474583 1115.7334096 228.81793445 1116.46362645 226.64086914 1117.16113281 C225.66118164 1117.48082031 224.68149414 1117.80050781 223.67211914 1118.12988281 C203.50797326 1123.74258321 182.58678456 1120.31123866 164.46508789 1110.41894531 C145.86068921 1099.71427494 132.62486888 1083.18180061 126.53833008 1062.59057617 C125.14011363 1057.24760922 124.28629525 1051.8660903 123.45336914 1046.41113281 C118.78601626 1017.81702002 111.78943953 989.62597382 105.24380493 961.41638184 C102.29008177 948.68335848 99.44546939 935.92780434 96.64086914 923.16113281 C96.30796028 921.64939227 95.97494648 920.13767483 95.6418457 918.62597656 C88.80258987 887.58603705 88.80258987 887.58603705 85.49633789 872.21972656 C85.23945694 871.02590614 85.23945694 871.02590614 84.97738647 869.80796814 C84.63713068 868.22636234 84.29689003 866.64475329 83.95666504 865.06314087 C83.79057739 864.29110321 83.62448975 863.51906555 83.45336914 862.72363281 C83.28776489 861.95377045 83.12216064 861.18390808 82.95153809 860.39071655 C80.65765469 849.73806961 78.27405139 839.11086608 75.79077148 828.50048828 C74.23746918 821.83515904 72.76553138 815.15636558 71.34521484 808.46142578 C70.59335521 804.91923577 69.8286125 801.38000385 69.06274414 797.84082031 C68.14449161 793.58380157 67.28242277 789.32213265 66.46899414 785.04394531 C64.14261862 772.61265288 64.14261862 772.61265288 56.11743164 763.17285156 C53.20302717 760.80547254 50.92639341 758.14013347 48.48803711 755.29516602 C45.55524272 751.90690858 42.46899353 748.66692672 39.39086914 745.41113281 C34.0321253 739.72006377 28.72057035 733.99209833 23.44946289 728.21972656 C20.20530612 724.67650456 16.92265839 721.16946596 13.64086914 717.66113281 C9.451057 713.18178311 5.27878023 708.68849436 1.14086914 704.16113281 C-2.9774336 699.65579428 -7.12795388 695.18238354 -11.29663086 690.72363281 C-17.18687283 684.4235235 -23.04770107 678.09722059 -28.89135742 671.75390625 C-31.37879296 669.05463322 -33.86909076 666.35800298 -36.35913086 663.66113281 C-39.33707042 660.43583681 -42.31449966 657.21008117 -45.28881836 653.98144531 C-51.2165086 647.54927079 -57.16556904 641.1378188 -63.14550781 634.75415039 C-65.93813091 631.76994081 -68.71753389 628.77650618 -71.45678711 625.74316406 C-77.49305191 619.07456625 -83.76483248 612.83851227 -90.44897461 606.81738281 C-114.95284139 584.4514373 -130.61477092 554.33414509 -132.23022461 520.85644531 C-132.2940332 519.02726563 -132.2940332 519.02726563 -132.35913086 517.16113281 C-132.4384082 515.51757812 -132.4384082 515.51757812 -132.51928711 513.84082031 C-132.71039325 506.81143784 -132.11079919 499.98983808 -131.17163086 493.03613281 C-131.07076172 492.2567334 -130.96989258 491.47733398 -130.8659668 490.67431641 C-129.97822245 484.6503369 -128.55430035 478.81047027 -127.04663086 472.91894531 C-124.44134518 462.73789402 -122.26369263 452.49335124 -120.16567993 442.19732666 C-119.09184168 436.93056956 -118.00343627 431.66683226 -116.91381836 426.40332031 C-116.69681778 425.3546579 -116.4798172 424.30599548 -116.25624084 423.22555542 C-114.31751621 413.89194265 -112.26724711 404.5855923 -110.17163086 395.28613281 C-107.43198267 383.12193859 -104.8442754 370.93545079 -102.36367798 358.71588135 C-100.0607731 347.38640452 -97.56754002 336.11284662 -94.98388672 324.84350586 C-92.81078621 315.30745806 -90.80428919 305.74581365 -88.85913086 296.16113281 C-86.39704704 284.02932468 -83.76189197 271.95273074 -80.99291992 259.88647461 C-78.40458403 248.53520963 -76.0483095 237.14177667 -73.75561523 225.72753906 C-72.31837845 218.60619209 -70.76957163 211.54558697 -68.90112305 204.52319336 C-68.24730819 202.07770501 -68.24730819 202.07770501 -68.35913086 199.16113281 C-81.81064655 206.63152813 -95.19538913 214.18896292 -108.46777344 221.97363281 C-117.18983242 227.08215512 -125.98182035 232.06031379 -134.78881836 237.02050781 C-147.96449922 244.44124113 -161.07048279 251.98482375 -174.17163086 259.53613281 C-175.250979 260.1580249 -176.33032715 260.77991699 -177.44238281 261.4206543 C-183.06757879 264.66681317 -188.6808984 267.93173865 -194.27709961 271.22753906 C-195.3827124 271.8773877 -196.4883252 272.52723633 -197.62744141 273.19677734 C-199.74443873 274.44263435 -201.85927319 275.69217559 -203.97167969 276.94580078 C-205.38549927 277.77748779 -205.38549927 277.77748779 -206.82788086 278.62597656 C-207.65739258 279.11702881 -208.4869043 279.60808105 -209.34155273 280.11401367 C-211.35913086 281.16113281 -211.35913086 281.16113281 -213.35913086 281.16113281 C-213.62218018 281.99878174 -213.88522949 282.83643066 -214.15625 283.69946289 C-215.44685004 287.41357249 -216.98217568 290.9714774 -218.60522461 294.54785156 C-219.08884964 295.6234584 -219.08884964 295.6234584 -219.58224487 296.72079468 C-220.2826082 298.27795303 -220.98421274 299.83455359 -221.68692017 301.39065552 C-223.61802277 305.66799229 -225.53893467 309.94990428 -227.46069336 314.23144531 C-227.86349014 315.12833572 -228.26628693 316.02522614 -228.68128967 316.94929504 C-233.05203371 326.68948644 -237.3636276 336.4555718 -241.67163086 346.22363281 C-243.27021973 349.84619178 -244.86925914 353.46855172 -246.46850586 357.09082031 C-246.86876984 357.99741394 -247.26903381 358.90400757 -247.681427 359.83807373 C-252.2489669 370.18048922 -256.83235671 380.51584588 -261.42163086 390.84863281 C-261.8355307 391.78107819 -262.24943054 392.71352356 -262.6758728 393.67422485 C-267.17235272 403.80159304 -271.69111856 413.91805677 -276.26928711 424.00878906 C-277.45569902 426.62574645 -278.6419382 429.2427819 -279.82794189 431.85992432 C-280.59379688 433.5498347 -281.36002733 435.23957498 -282.12664795 436.92913818 C-287.11844859 447.94594694 -291.91629927 458.99041977 -296.10571289 470.34375 C-301.91730245 485.69037178 -311.79125404 497.47466097 -326.35913086 505.16113281 C-330.62736279 507.04094991 -334.93352851 508.69143651 -339.35913086 510.16113281 C-340.44581055 510.52851562 -341.53249023 510.89589844 -342.65209961 511.27441406 C-359.03902372 515.19415249 -375.78248846 511.4917653 -390.18725586 503.27050781 C-403.42152747 494.46939123 -411.89851641 483.04280736 -417.35913086 468.16113281 C-417.8405957 467.03191406 -417.8405957 467.03191406 -418.33178711 465.87988281 C-423.13695656 453.18529561 -421.59034829 436.40646998 -416.35913086 424.16113281 C-414.25319331 419.51210629 -412.03652531 414.91850192 -409.78515625 410.33837891 C-404.90642154 400.39653166 -400.68191726 390.22224191 -396.50585938 379.9699707 C-392.64742981 370.51899514 -388.63966523 361.13393399 -384.6015625 351.75878906 C-378.43280174 337.429255 -372.36711415 323.05875942 -366.35913086 308.66113281 C-360.63038324 294.93322967 -354.84712322 281.23184193 -348.95843506 267.57177734 C-345.16510967 258.76968222 -341.42342711 249.94815383 -337.74194336 241.09863281 C-337.14872284 239.67411804 -337.14872284 239.67411804 -336.54351807 238.2208252 C-334.61835258 233.59607338 -332.6983228 228.96930108 -330.78686523 224.33886719 C-327.21553043 215.72227956 -323.52725556 207.17694429 -319.56616211 198.73144531 C-319.02174973 197.56131897 -319.02174973 197.56131897 -318.46633911 196.36755371 C-315.5469397 190.23260959 -312.11893154 185.04762021 -307.35913086 180.16113281 C-306.68108398 179.44441406 -306.00303711 178.72769531 -305.30444336 177.98925781 C-299.74479673 172.56427391 -293.49878991 168.55851354 -286.92163086 164.51269531 C-278.48823501 159.3121012 -270.27303034 153.80531377 -262.04663086 148.28613281 C-252.69237716 142.01782254 -243.32399601 135.78990754 -233.79663086 129.78613281 C-225.51882448 124.5681831 -217.35675641 119.19743904 -209.22753906 113.7512207 C-200.17826449 107.69322813 -191.08688567 101.70088125 -181.98413086 95.72363281 C-181.23242615 95.22999237 -180.48072144 94.73635193 -179.70623779 94.22775269 C-166.96520601 85.86229231 -154.21204783 77.51544764 -141.45092773 69.18066406 C-131.75105825 62.8448049 -122.05456074 56.5037831 -112.35913086 50.16113281 C-111.74608093 49.76009338 -111.13303101 49.35905396 -110.50140381 48.94586182 C-106.62484569 46.40978535 -102.7487653 43.87298077 -98.87319946 41.33538818 C-97.63891636 40.5273147 -96.40452565 39.71940554 -95.17001343 38.91168213 C-88.10244712 34.28719653 -81.05220054 29.63805252 -74.0300293 24.94482422 C-51.42261338 9.84703805 -27.57044035 0.03700529 0 0 Z " fill="#000000" transform="translate(740.359130859375,415.8388671875)"/>
<path d="M0 0 C6.74905351 5.55852539 12.89703651 11.69792129 19.1015625 17.84521484 C20.31588581 19.04506763 21.53035196 20.24477586 22.74494934 21.4443512 C33.76609011 32.33593806 44.7559211 43.25931854 55.73835754 54.18991661 C63.85138423 62.2639397 71.97886592 70.32281781 80.12570953 78.36272085 C85.86201803 84.02625373 91.58109258 89.70683109 97.28772736 95.40026057 C100.6941896 98.79785369 104.10793562 102.18730511 107.54058838 105.55845261 C110.76471354 108.72544413 113.96702854 111.91294277 117.1537838 115.11752129 C118.32673042 116.28958801 119.50741965 117.45396458 120.69623756 118.60993004 C122.31836901 120.18952624 123.91032994 121.79446647 125.49780273 123.40878296 C126.39667709 124.30066 127.29555145 125.19253704 128.22166443 126.11144066 C130.7599357 130.23436735 130.00018206 132.32693391 129 137 C128.81521591 137.86472931 128.63043182 138.72945862 128.44004822 139.62039185 C128.13315819 140.76373489 128.13315819 140.76373489 127.82006836 141.93017578 C127.58541367 142.81481506 127.35075897 143.69945435 127.10899353 144.61090088 C126.8551741 145.54625671 126.60135468 146.48161255 126.33984375 147.4453125 C126.07422134 148.44093201 125.80859894 149.43655151 125.53492737 150.46234131 C124.6740485 153.68457062 123.80582807 156.90477098 122.9375 160.125 C122.34194588 162.34898672 121.74689626 164.57310859 121.15234375 166.79736328 C119.97654628 171.19312597 118.79801444 175.58813883 117.61669922 179.98242188 C115.89552959 186.38542932 114.18551379 192.79136452 112.47973633 199.19848633 C111.83702109 201.61031008 111.19239199 204.02162481 110.5456543 206.43237305 C109.17611302 211.54146025 107.82664574 216.65277927 106.546875 221.78515625 C106.21333008 223.10700928 106.21333008 223.10700928 105.87304688 224.45556641 C105.47982245 226.02199255 105.09460584 227.59047085 104.72070312 229.16162109 C102.72166709 237.09175933 98.60204069 242.77329962 93.5 248.9375 C89.17473761 254.25093596 84.96587231 259.6289472 80.875 265.125 C76.50901312 270.98663096 72.09540608 276.80418507 67.62890625 282.58984375 C64.57239711 286.54954606 61.53666613 290.52507285 58.5 294.5 C52.22413744 302.71216902 45.92395472 310.90529157 39.6171875 319.09375 C34.9005268 325.22085907 30.19520689 331.35643188 25.5 337.5 C20.80368367 343.6450198 16.09777708 349.78244116 11.37890625 355.91015625 C9.80188021 357.95847742 8.22634141 360.00794455 6.65234375 362.05859375 C3.00943496 366.80326033 -0.63935222 371.54256756 -4.3203125 376.2578125 C-10.53772151 384.22278958 -16.70066132 392.21974175 -22.74609375 400.31616211 C-28.48356238 407.99767636 -34.32850896 415.59403931 -40.2421875 423.140625 C-41.41171612 424.63521499 -42.58098056 426.13001172 -43.75 427.625 C-44.33918213 428.3775708 -44.92836426 429.1301416 -45.53540039 429.90551758 C-49.29191562 434.72936903 -52.93094458 439.62353619 -56.51293945 444.578125 C-70.95865641 464.52109281 -88.72741374 479.1927203 -113.7421875 483.46875 C-116.50096003 483.76345567 -119.2270955 483.90744645 -122 484 C-123.71123047 484.09474609 -123.71123047 484.09474609 -125.45703125 484.19140625 C-145.07343689 484.82816916 -163.20299508 477.84750751 -178 465 C-179.5159375 463.8553125 -179.5159375 463.8553125 -181.0625 462.6875 C-196.05977653 448.96658743 -205.3173224 429.02569567 -206.23828125 408.7578125 C-206.77325836 386.60641638 -200.78684418 367.76746734 -186 351 C-184.34870007 349.04627399 -182.703142 347.08768455 -181.0625 345.125 C-180.63694824 344.61759277 -180.21139648 344.11018555 -179.77294922 343.58740234 C-176.19568376 339.29767504 -172.85147515 334.86170108 -169.52734375 330.375 C-166.51570216 326.32852659 -163.41360371 322.35307609 -160.3125 318.375 C-159.42208008 317.23260864 -159.42208008 317.23260864 -158.51367188 316.06713867 C-157.29211658 314.50075258 -156.07027095 312.93459287 -154.84814453 311.36865234 C-151.81209213 307.47753208 -148.7806605 303.58282058 -145.75 299.6875 C-145.16259033 298.93259277 -144.57518066 298.17768555 -143.9699707 297.39990234 C-140.63380288 293.10967218 -137.30994069 288.81049465 -134 284.5 C-127.10039094 275.5147248 -120.12848881 266.58557012 -113.16796875 257.64746094 C-104.55907251 246.59301287 -104.55907251 246.59301287 -96 235.5 C-89.10039094 226.5147248 -82.12848881 217.58557012 -75.16796875 208.64746094 C-68.63254657 200.25427153 -62.10729119 191.8543895 -55.6328125 183.4140625 C-53.01497305 180.01025718 -50.36985265 176.62799644 -47.72412109 173.24584961 C-45.90126976 170.90868176 -44.09062892 168.56244933 -42.28125 166.21484375 C-40.38760903 163.76166871 -38.46994046 161.37259928 -36.46875 159.00390625 C-32.48282907 154.11817855 -30.47512445 149.90070807 -29.09765625 143.73046875 C-28.93406113 143.00252106 -28.770466 142.27457336 -28.60191345 141.52456665 C-26.2086822 130.68655101 -24.15888039 119.77328977 -22.0625 108.875 C-19.63932805 96.29433267 -17.19993304 83.72609956 -14.4375 71.21484375 C-12.05208371 60.41094064 -9.95818245 49.56474753 -7.9375 38.6875 C-5.52882942 25.73179 -2.94720975 12.84483296 0 0 Z " fill="#000000" transform="translate(590,1052)"/>
<path d="M0 0 C29.12952125 25.18308162 48.26384214 59.79444564 51.25 98.5625 C52.56859256 128.54770371 47.42364029 156.30594115 32.25 182.5625 C31.73034668 183.46186279 31.73034668 183.46186279 31.20019531 184.37939453 C10.76995628 219.06220196 -22.26530257 241.41850105 -60.75 251.5625 C-96.54736229 260.5700444 -135.18573408 252.9986043 -166.73950195 234.67749023 C-200.50343982 214.38626723 -222.51769268 182.4109093 -233 144.875 C-233.60431856 142.44261781 -234.18918532 140.00527934 -234.75 137.5625 C-234.976875 136.60085937 -235.20375 135.63921875 -235.4375 134.6484375 C-242.32073616 99.18065116 -232.81372349 61.66685292 -213.75 31.5625 C-208.34195753 23.69625641 -202.29616193 16.49913475 -195.75 9.5625 C-195.07710937 8.82515625 -194.40421875 8.0878125 -193.7109375 7.328125 C-143.42056291 -45.78755153 -54.59565976 -45.97063872 0 0 Z " fill="#000000" transform="translate(972.75,97.4375)"/>
<path d="M0 0 C4.21277238 3.78122008 7.18729238 8.36723959 10.375 13 C11.63011089 14.80866137 12.88532205 16.61725317 14.140625 18.42578125 C14.78064453 19.35084473 15.42066406 20.2759082 16.08007812 21.22900391 C19.08013967 25.55895032 22.10247506 29.87321852 25.125 34.1875 C25.70685059 35.01894531 26.28870117 35.85039063 26.88818359 36.70703125 C31.06357458 42.67154163 35.25839318 48.62208737 39.46142578 54.56713867 C43.32373485 60.03352615 47.16448625 65.51478603 51 71 C58.38939983 81.5665385 65.82440857 92.10044171 73.2734375 102.625 C73.81339355 103.38852783 74.35334961 104.15205566 74.90966797 104.9387207 C75.93663193 106.39087991 76.96425426 107.84257385 77.99267578 109.29370117 C78.45915527 109.95345947 78.92563477 110.61321777 79.40625 111.29296875 C79.8612085 111.92251465 80.31616699 112.55206055 80.78491211 113.20068359 C82 115 82 115 83.59765625 118.23828125 C87.44556734 122.66181482 92.40694171 123.48622756 97.9375 125 C99.09958984 125.33684814 100.26167969 125.67369629 101.45898438 126.02075195 C104.96739556 127.03347683 108.48304495 128.0174327 112 129 C113.91872778 129.55336448 115.83675903 130.10915296 117.75390625 130.66796875 C124.31909385 132.57496216 130.89890756 134.42696199 137.4921875 136.234375 C144.40027487 138.12872879 151.28434609 140.06718484 158.12753296 142.1857605 C168.40889213 145.36705885 178.73431694 148.3723433 189.0884285 151.30560875 C193.78379172 152.63764101 198.47607862 153.9804914 203.16872597 155.32205486 C207.18298843 156.46853358 211.19903679 157.60790814 215.21923828 158.73339844 C259.21065077 171.06446404 259.21065077 171.06446404 271 184 C271.66 184.71414063 272.32 185.42828125 273 186.1640625 C284.94971393 200.06013136 290.44497317 216.4162603 289.25439453 234.61083984 C287.37405728 252.27012998 278.97788817 267.94833186 265.26171875 279.2578125 C250.41644227 290.38663664 234.4543695 294.76190939 216 293 C211.02821619 292.16067736 206.34085509 290.96950477 201.68041992 289.03930664 C199.01683898 288.00652915 196.39669916 287.23783085 193.6328125 286.51953125 C192.59447266 286.24625 191.55613281 285.97296875 190.48632812 285.69140625 C189.37708984 285.40136719 188.26785156 285.11132812 187.125 284.8125 C178.52874063 282.53547192 169.99117966 280.14201555 161.5 277.5 C153.37890367 274.97652338 145.22140161 272.67425497 137 270.5 C127.82557423 268.07370558 118.74547415 265.44034148 109.68359375 262.625 C102.49848241 260.41115552 95.26813311 258.42215091 88 256.5 C78.83736378 254.07682348 69.76714345 251.4518807 60.71875 248.63378906 C52.10691628 245.97548344 43.41621964 243.64639409 34.68945312 241.39648438 C19.67760051 237.46771096 19.67760051 237.46771096 14.625 231.4375 C13.86445312 230.54933594 13.10390625 229.66117188 12.3203125 228.74609375 C11.55460938 227.83988281 10.78890625 226.93367187 10 226 C8.50615019 224.32781864 7.00622352 222.6610444 5.5 221 C4.39011719 219.76636719 4.39011719 219.76636719 3.2578125 218.5078125 C1.73291756 216.81407106 0.20684598 215.12138831 -1.3203125 213.4296875 C-4.69912708 209.68435744 -8.06895965 205.93481793 -11.375 202.125 C-14.35916846 198.69667624 -17.42195097 195.34385458 -20.5 192 C-24.19921699 187.98003803 -27.88349994 183.95279062 -31.42578125 179.79296875 C-32.99275623 177.96389093 -32.99275623 177.96389093 -34.79296875 176.23828125 C-35.35628906 175.66464844 -35.91960938 175.09101562 -36.5 174.5 C-37.25796875 173.77296875 -37.25796875 173.77296875 -38.03125 173.03125 C-40.98041631 166.84751418 -36.42757921 156.24877549 -34.83203125 150.0078125 C-34.34660646 148.08202892 -33.86118473 146.15624457 -33.37591839 144.23042107 C-32.69603336 141.53703717 -32.01187689 138.84474605 -31.32763672 136.15246582 C-29.82305867 130.23077463 -28.32556891 124.30729702 -26.83203125 118.3828125 C-26.66890001 117.73648361 -26.50576878 117.09015472 -26.33769417 116.42424011 C-23.75965884 106.19684871 -21.33519304 95.93933035 -18.99191284 85.6557312 C-17.27779932 78.14603149 -15.43370146 70.69022111 -13.4375 63.25 C-10.79301669 53.21980564 -8.37073754 43.16237319 -6.12890625 33.03515625 C-5.4036614 29.76185528 -4.64355271 26.50101313 -3.83984375 23.24609375 C-1.93514356 15.51790423 -0.34499645 7.98666773 0 0 Z " fill="#000000" transform="translate(991,539)"/>
<path d="M0 0 C0.66 0.66 1.32 1.32 2 2 C0.35 3.98 -1.3 5.96 -3 8 C-3.99 7.34 -4.98 6.68 -6 6 C-2.25 1.125 -2.25 1.125 0 0 Z " fill="#ECECEC" transform="translate(684,1301)"/>
</svg>
