<?xml version="1.0" encoding="UTF-8"?>
<svg version="1.1" xmlns="http://www.w3.org/2000/svg" width="1600" height="1600">
<path d="M0 0 C528 0 1056 0 1600 0 C1600 528 1600 1056 1600 1600 C1072 1600 544 1600 0 1600 C0 1072 0 544 0 0 Z " fill="#F6F6F6" transform="translate(0,0)"/>
<path d="M0 0 C10.22637391 2.53965908 20.55344515 4.63837774 30.86380005 6.80487061 C34.72724187 7.61921434 38.59046549 8.43459026 42.4536438 9.25018311 C43.39325958 9.44843185 44.33287537 9.6466806 45.30096436 9.85093689 C59.89266606 12.93447485 74.47614782 16.0537966 88.98880005 19.49237061 C100.76317946 22.24776542 112.58795667 24.7341068 124.42526245 27.20056152 C134.18125428 29.23508033 143.91463298 31.32401091 153.61380005 33.61737061 C164.05978285 36.08396053 174.55074629 38.29548865 185.06002808 40.47198486 C187.86168743 41.05443141 190.66201441 41.64288207 193.46194458 42.23358154 C195.32245452 42.62585492 197.18296883 43.01810758 199.04348755 43.41033936 C199.96215607 43.60415192 200.88082458 43.79796448 201.82733154 43.99765015 C206.95612949 45.07437323 212.09061682 46.10694966 217.23725891 47.09465027 C235.94714387 50.70875107 251.30810376 55.77568896 267.77835083 65.79022217 C273.21900983 69.05613659 278.80252415 72.06320435 284.36380005 75.11737061 C286.60962142 76.36682365 288.85441202 77.61813122 291.09817505 78.87127686 C296.34382171 81.7987105 301.59374897 84.71826841 306.84698486 87.63204956 C310.84707111 89.85091586 314.84414555 92.07513351 318.84036255 94.30096436 C322.49169277 96.33330854 326.15009356 98.35017247 329.82473755 100.34002686 C337.44075756 104.48512808 344.47303024 108.82590943 350.92630005 114.67987061 C352.26241333 115.87676514 352.26241333 115.87676514 353.6255188 117.09783936 C368.19905713 130.85834905 378.26674582 148.91827779 381.92630005 168.67987061 C382.05649536 169.37467529 382.18669067 170.06947998 382.3208313 170.78533936 C386.32181596 198.3654603 377.4233472 223.03856409 364.5552063 246.96893311 C360.23093275 255.10248954 356.06738626 263.31115621 351.95755005 271.55487061 C351.65291903 272.16564075 351.348288 272.7764109 351.03442574 273.40568924 C348.82886203 277.82899676 346.62714633 282.25421443 344.42630005 286.67987061 C341.91847335 291.72283012 339.40906586 296.76499312 336.89505005 301.80487061 C336.43569313 302.72586548 336.43569313 302.72586548 335.96705627 303.66546631 C332.38657074 310.83794847 328.75719426 317.9790333 324.98880005 325.05487061 C320.69850315 333.11330781 316.59495412 341.26115399 312.52005005 349.42987061 C312.1925325 350.08634583 311.86501495 350.74282104 311.52757263 351.41918945 C309.15763057 356.17133146 306.79157182 360.92540274 304.42630005 365.67987061 C301.73095603 371.0978216 299.03405633 376.51498913 296.33255005 381.92987061 C296.00383408 382.58882324 295.6751181 383.24777588 295.33644104 383.92669678 C291.65349408 391.30363197 287.93229166 398.65457928 284.05130005 405.92987061 C279.42791134 414.60279172 275.03288489 423.38624844 270.64505005 432.17987061 C270.27349289 432.92442505 269.90193573 433.66897949 269.51911926 434.43609619 C266.8186781 439.84927657 264.12210706 445.26438125 261.42630005 450.67987061 C258.35592782 456.84780773 255.28404215 463.01498331 252.20755005 469.17987061 C251.83882153 469.91882757 251.470093 470.65778454 251.09019089 471.41913414 C246.16074677 481.29091937 241.14284345 491.10648566 235.95657349 500.84637451 C232.96566397 506.46700394 230.12914907 512.16317383 227.30130005 517.86737061 C226.51046021 519.45581787 226.51046021 519.45581787 225.7036438 521.07635498 C224.44259889 523.60990885 223.18346176 526.14438832 221.92630005 528.67987061 C225.34265881 532.79061123 228.77634651 536.64319012 232.80130005 540.17987061 C233.66497192 540.94299561 234.5286438 541.70612061 235.41848755 542.49237061 C236.65985474 543.57518311 236.65985474 543.57518311 237.92630005 544.67987061 C238.95110474 545.57705811 238.95110474 545.57705811 239.99661255 546.49237061 C241.2880517 547.6217263 242.58103455 548.74931905 243.8755188 549.87518311 C246.18718802 551.90945202 248.46161435 553.9820937 250.73880005 556.05487061 C254.11570987 559.10845927 257.55847137 562.02416265 261.11380005 564.86737061 C267.17950223 569.76990546 272.80794982 575.10245097 278.48098755 580.44940186 C281.60405927 583.3901964 284.78902097 586.24386238 288.0395813 589.04315186 C290.36288792 591.05860833 292.6437847 593.11835523 294.92630005 595.17987061 C300.23736085 599.96787239 305.58761356 604.70174712 311.04348755 609.32440186 C317.81525155 615.07276177 324.41510413 620.94834355 330.88577271 627.03387451 C335.12916204 631.0009612 339.54586963 634.67552627 344.08255005 638.30487061 C348.11121186 641.66946729 351.90077301 645.27099407 355.71951294 648.86981201 C360.17046991 653.04070739 364.78488504 656.89052817 369.5473938 660.70330811 C372.24302373 662.9430269 374.63880057 665.36237115 377.06692505 667.88299561 C379.32067575 670.06098998 381.72499547 671.97713645 384.17630005 673.92987061 C399.65817991 686.47699851 412.97677276 702.29488464 415.1633606 722.91546631 C415.86389424 735.09760599 414.29952341 746.1998198 411.47317505 758.00799561 C409.58562539 765.93182231 408.10659787 773.92443384 406.61380005 781.92987061 C406.31543551 783.51957751 406.01693101 785.10925816 405.71829224 786.69891357 C404.14799601 795.07267105 402.59817862 803.4501987 401.05130005 811.82830811 C400.40601056 815.32059636 399.76012448 818.81277374 399.11380005 822.30487061 C398.95085449 823.18568298 398.78790894 824.06649536 398.62002563 824.97399902 C395.39804363 842.36569239 391.99932493 859.72110956 388.5786438 877.074646 C385.74678832 891.44800172 382.97387455 905.83098569 380.27127075 920.22918701 C380.0013454 921.6671777 379.73140751 923.10516603 379.4614563 924.54315186 C379.33221268 925.23191406 379.20296906 925.92067627 379.06980896 926.63031006 C378.20521112 931.22725126 377.31951067 935.81962871 376.4223938 940.41033936 C376.18947632 941.6045752 375.95655884 942.79881104 375.71658325 944.02923584 C375.2924294 946.19732355 374.86547822 948.36486719 374.43484497 950.53167725 C373.44685838 955.58809585 372.6778573 960.58427188 372.16360474 965.70965576 C371.84226417 968.3775759 371.20332501 970.90453151 370.48880005 973.49237061 C369.47522287 977.16990454 368.72073395 980.81568838 368.12161255 984.57830811 C367.14100055 990.62533784 365.98023677 996.62855609 364.7895813 1002.63690186 C364.58832642 1003.65318665 364.38707153 1004.66947144 364.17971802 1005.71655273 C363.75401138 1007.86320199 363.32792493 1010.00977596 362.90148926 1012.15628052 C358.72928729 1033.11741008 358.72928729 1033.11741008 354.88723755 1054.14080811 C354.73322983 1055.02147446 354.57922211 1055.90214081 354.42054749 1056.80949402 C353.71351677 1060.86835817 353.0201252 1064.92889771 352.34744263 1068.99359131 C348.32492374 1092.73725034 339.93348378 1115.7775309 319.92630005 1130.67987061 C311.73659001 1136.38170263 303.42823635 1140.63556092 293.92630005 1143.67987061 C292.94661255 1143.99955811 291.96692505 1144.31924561 290.95755005 1144.64862061 C270.79340417 1150.261321 249.87221546 1146.82997646 231.7505188 1136.93768311 C211.79016056 1125.45281552 199.08971456 1107.77121025 192.92630005 1085.67987061 C188.03055031 1066.87738431 192.00379243 1048.60946881 195.84280396 1029.96697998 C197.10972587 1023.80891962 198.33568493 1017.64279716 199.5630188 1011.47674561 C201.23846137 1003.06662246 202.91890149 994.65754102 204.60771179 986.25009155 C207.54413705 971.62968965 210.40989115 956.99778137 213.21829224 942.35223389 C213.99104145 938.34406366 214.7738734 934.33795198 215.55911255 930.33221436 C218.63044014 914.64982293 221.63078799 898.95717566 224.53204346 883.24234009 C226.87339993 870.56076085 229.21628076 857.88944234 231.91848755 845.27874756 C234.68895063 832.26468069 237.17390697 819.19170852 239.71707153 806.1317749 C239.90428268 805.17080399 240.09149384 804.20983307 240.28437805 803.21974182 C240.65192767 801.33151704 241.01881142 799.44316251 241.38499451 797.55467224 C242.19133625 793.40450866 243.00726726 789.25737846 243.86672974 785.11785889 C244.00863739 784.42990738 244.15054504 783.74195587 244.29675293 783.03315735 C244.66833602 781.24144026 245.04582565 779.45095083 245.42385864 777.6605835 C246.1537262 773.67288998 246.1537262 773.67288998 245.92630005 769.67987061 C243.85023074 767.70958731 243.85023074 767.70958731 240.9770813 766.14862061 C239.91231567 765.50989014 238.84755005 764.87115967 237.7505188 764.21307373 C236.5800477 763.53516352 235.40947215 762.85743364 234.23880005 762.17987061 C233.03973901 761.46760086 231.84183137 760.75338607 230.64505005 760.03729248 C228.22068361 758.58876319 225.7916146 757.14868913 223.35842896 755.71502686 C218.67234005 752.93630747 214.04757971 750.06458951 209.42630005 747.17987061 C207.72886782 746.12700586 206.03094178 745.07493686 204.33255005 744.02362061 C203.46630005 743.48737061 202.60005005 742.95112061 201.70755005 742.39862061 C196.4521454 739.15089863 191.18884804 735.91599989 185.92630005 732.67987061 C178.0856058 727.85834684 170.25005671 723.02883208 162.42630005 718.17987061 C150.2773028 710.65116143 138.10129122 703.16644397 125.92630005 695.67987061 C112.90658971 687.67386754 99.88920163 679.66450566 86.8977356 671.61273193 C78.80459836 666.59910004 70.69523231 661.61197116 62.5852356 656.62567139 C56.65015138 652.97540379 50.72047333 649.3167513 44.79959106 645.64349365 C23.28813565 632.18864826 23.28813565 632.18864826 1.36380005 619.42987061 C-8.68838108 613.74661566 -18.27368946 607.2621171 -26.07369995 598.67987061 C-26.85744995 597.91674561 -27.64119995 597.15362061 -28.44869995 596.36737061 C-29.31494995 595.48049561 -30.18119995 594.59362061 -31.07369995 593.67987061 C-32.04243042 592.70533936 -32.04243042 592.70533936 -33.0307312 591.71112061 C-46.67174035 577.37731064 -56.15589832 558.7600967 -61.07369995 539.67987061 C-61.2556189 539.01600342 -61.43753784 538.35213623 -61.62496948 537.66815186 C-70.4271945 504.98905439 -64.26476548 470.76080628 -47.83151245 441.59393311 C-45.25495784 437.32257813 -42.5312625 433.15211346 -39.79855347 428.97943115 C-29.52058218 413.24091642 -19.90350515 397.06645542 -10.14596558 381.00238037 C-6.38275355 374.81240917 -2.58390521 368.64574831 1.23880005 362.49237061 C6.35588046 354.25436841 11.40178523 345.97448925 16.42630005 337.67987061 C21.96478534 328.53677419 27.5424773 319.41997214 33.18411255 310.34002686 C37.13490559 303.97540764 41.03818461 297.58294542 44.92630005 291.17987061 C49.87679784 283.0291542 54.86699229 274.90460596 59.89334106 266.80047607 C69.87335379 250.70813722 79.78879171 234.57654438 89.61941528 218.39251709 C94.85222802 209.78451404 100.13182833 201.20557526 105.4223938 192.63299561 C109.30192759 186.3416453 113.14098299 180.02838303 116.92630005 173.67987061 C115.46957886 173.51575684 115.46957886 173.51575684 113.98342896 173.34832764 C109.50018359 172.70357058 105.31240139 171.37624472 101.01223755 169.98455811 C100.16843536 169.71620148 99.32463318 169.44784485 98.45526123 169.1713562 C95.7354881 168.30467503 93.01838317 167.42994457 90.30130005 166.55487061 C88.43032308 165.95684888 86.55922899 165.35919345 84.6880188 164.76190186 C74.60041864 161.53575002 64.53295572 158.25524391 54.50125122 154.85882568 C48.90255238 152.9728296 43.26413612 151.28582567 37.58450317 149.66229248 C30.25504068 147.53970212 23.0453414 145.07013195 15.81668091 142.63031006 C9.12482854 140.38262019 2.41212959 138.27781686 -4.37716675 136.34539795 C-9.55107294 134.86713904 -14.60930374 133.14626243 -19.6557312 131.28143311 C-22.37596276 130.60467113 -23.45066744 130.80419359 -26.07369995 131.67987061 C-27.95820101 132.78711529 -27.95820101 132.78711529 -29.8041687 134.19940186 C-30.87151245 134.98154053 -30.87151245 134.98154053 -31.9604187 135.77947998 C-32.71967651 136.34473389 -33.47893433 136.90998779 -34.26119995 137.49237061 C-35.88948084 138.68723369 -37.51840188 139.88122485 -39.1479187 141.07440186 C-39.97211304 141.67977783 -40.79630737 142.28515381 -41.64547729 142.90887451 C-45.25748666 145.54325175 -48.91342283 148.11320238 -52.57369995 150.67987061 C-60.70248519 156.39642468 -68.76038376 162.20812849 -76.80758667 168.03875732 C-81.30852328 171.29832379 -85.8154543 174.5495968 -90.32125854 177.8024292 C-94.0857756 180.52056584 -97.84882703 183.24068465 -101.6088562 185.96502686 C-109.59726007 191.7497331 -117.61485814 197.48783851 -125.68161011 203.16278076 C-133.10316448 208.39094109 -140.45635049 213.7123936 -147.80758667 219.03875732 C-151.56014795 221.75635234 -155.31713415 224.46781533 -159.07369995 227.17987061 C-160.57372141 228.26317422 -162.07372141 229.34650756 -163.57369995 230.42987061 C-172.57369995 236.92987061 -172.57369995 236.92987061 -174.82345581 238.55462646 C-176.32435545 239.63865477 -177.82516917 240.72280203 -179.32589722 241.80706787 C-183.06143962 244.50574715 -186.79842249 247.20238372 -190.5385437 249.89471436 C-191.64516357 250.69220093 -191.64516357 250.69220093 -192.7741394 251.50579834 C-194.26268394 252.57814173 -195.75210218 253.64927339 -197.24240112 254.71917725 C-201.19161571 257.56310985 -205.10180709 260.44804847 -208.97213745 263.39862061 C-217.64828047 269.98757422 -225.7467801 275.93863913 -236.07369995 279.67987061 C-236.91030151 280.01373779 -237.74690308 280.34760498 -238.6088562 280.69158936 C-253.42833251 285.75357431 -270.37751241 283.305249 -284.3979187 277.24237061 C-301.00247378 269.06782042 -311.74634702 255.92364561 -318.07369995 238.67987061 C-318.55516479 237.55065186 -318.55516479 237.55065186 -319.0463562 236.39862061 C-324.48069097 222.04186643 -321.5279772 204.98038673 -315.63619995 191.35565186 C-309.01716189 177.91073079 -299.19360628 169.15842599 -286.99655151 160.97918701 C-283.56793729 158.66239106 -280.20039844 156.2588914 -276.82369995 153.86737061 C-275.75792725 153.11604858 -275.75792725 153.11604858 -274.67062378 152.34954834 C-267.18859476 147.0723077 -259.77163275 141.70601931 -252.35739136 136.33416748 C-248.51490884 133.55068859 -244.66960025 130.77112461 -240.82369995 127.99237061 C-240.07096802 127.4484668 -239.31823608 126.90456299 -238.54269409 126.34417725 C-233.50526587 122.70686018 -228.45462941 119.08864154 -223.39425659 115.4833374 C-218.66734253 112.11237781 -213.96379332 108.70964434 -209.26119995 105.30487061 C-203.39238592 101.05744079 -197.49945588 96.84747308 -191.57369995 92.67987061 C-183.45177299 86.96628792 -175.3987623 81.16039446 -167.35739136 75.33416748 C-163.51490884 72.55068859 -159.66960025 69.77112461 -155.82369995 66.99237061 C-155.07096802 66.4484668 -154.31823608 65.90456299 -153.54269409 65.34417725 C-148.50526587 61.70686018 -143.45462941 58.08864154 -138.39425659 54.4833374 C-133.66734253 51.11237781 -128.96379332 47.70964434 -124.26119995 44.30487061 C-117.70040047 39.55663098 -111.10320254 34.86397639 -104.47775269 30.20648193 C-99.2287046 26.51068015 -94.02160486 22.75965948 -88.82369995 18.99237061 C-86.5915031 17.38135232 -84.35847241 15.77149945 -82.12496948 14.16229248 C-80.82380219 13.2219583 -79.52500116 12.27833408 -78.22946167 11.33026123 C-70.55580737 5.7169842 -62.93335899 1.17445167 -54.07369995 -2.32012939 C-53.22936401 -2.66044189 -52.38502808 -3.00075439 -51.5151062 -3.35137939 C-34.42208644 -9.11127373 -16.80778649 -4.22517201 0 0 Z " fill="#000000" transform="translate(673.0736999511719,325.32012939453125)"/>
<path d="M0 0 C2.00498878 2.5641547 3.65073265 5.06903336 5.09375 7.984375 C13.48683055 24.61758302 23.35908896 39.29855771 36 53 C36.53463867 53.57991699 37.06927734 54.15983398 37.62011719 54.75732422 C56.59511122 75.07166366 80.25371152 88.64722026 103.93969727 102.7668457 C111.6996931 107.39523942 119.35989132 112.17691463 127 117 C125.38098208 122.0446229 122.36968223 125.8626461 119.25 130.0625 C118.06636045 131.67739835 116.8841176 133.29332115 115.703125 134.91015625 C115.09146484 135.74691895 114.47980469 136.58368164 113.84960938 137.44580078 C110.84625151 141.59325722 107.92386354 145.79630604 105 150 C100.49845789 156.46226374 95.94206412 162.87883795 91.3125 169.25 C87.29444983 174.78084124 83.35042546 180.35116803 79.5 186 C73.9631805 194.12127838 68.21383022 202.08136262 62.42919922 210.02734375 C61.20373119 211.71879945 59.99295136 213.42087992 58.78515625 215.125 C47.5777094 230.89335058 35.12150764 244.23625335 19 255 C18.15566406 255.5671875 17.31132813 256.134375 16.44140625 256.71875 C-8.91438742 272.79594801 -37.28511744 275.47420212 -66.57271206 275.40683305 C-70.09762065 275.4020366 -73.62247809 275.41466712 -77.14736938 275.42485046 C-84.02495868 275.44191588 -90.90245614 275.44290465 -97.78006109 275.43763756 C-103.37492185 275.43357344 -108.96975575 275.43506579 -114.56461525 275.44038582 C-115.76526962 275.44150845 -115.76526962 275.44150845 -116.99017963 275.44265376 C-118.61690579 275.44418544 -120.24363194 275.44572378 -121.87035809 275.44726873 C-137.07190898 275.46094806 -152.27340819 275.45558718 -167.47495786 275.44408352 C-181.34985771 275.43414435 -195.22462434 275.44711176 -209.09950366 275.47101771 C-223.3925931 275.4954564 -237.6856206 275.5050056 -251.9787305 275.49836498 C-259.98487498 275.49488483 -267.99091697 275.49702541 -275.99704552 275.51461601 C-282.80813566 275.5293974 -289.61905102 275.52989586 -296.43013795 275.5125451 C-299.89759288 275.50408339 -303.36473633 275.50176577 -306.8321743 275.51719666 C-323.88959978 275.57727166 -340.04364455 275.50720385 -355.4375 267.1875 C-356.0979834 266.84420654 -356.7584668 266.50091309 -357.43896484 266.1472168 C-362.75918459 263.30536435 -367.44494883 259.95492564 -372 256 C-373.5159375 254.8553125 -373.5159375 254.8553125 -375.0625 253.6875 C-389.41052201 240.56058624 -398.89139249 221.27985941 -400.13891602 201.8347168 C-401.09721884 179.35580521 -395.41808686 158.0829507 -380 141 C-379.34 141 -378.68 141 -378 141 C-378 140.34 -378 139.68 -378 139 C-365.62539795 125.12661075 -345.5638885 116.15571639 -327.24372244 114.79532909 C-319.70433637 114.51933924 -312.16529319 114.69591471 -304.62451172 114.83496094 C-302.10452718 114.86557549 -299.5845154 114.89401264 -297.06448364 114.92045593 C-292.36429945 114.97175008 -287.6643321 115.0290625 -282.96434619 115.09591338 C-273.72876386 115.22682118 -264.49342782 115.30171432 -255.2571106 115.35675049 C-253.79630359 115.36571104 -252.3354967 115.37469116 -250.87468994 115.3836906 C-248.66217441 115.39723648 -246.44965851 115.41071018 -244.23714157 115.42402349 C-235.92872788 115.47403925 -227.62035078 115.52812069 -219.31201172 115.58935547 C-218.55398129 115.59492231 -217.79595086 115.60048915 -217.01494981 115.60622469 C-204.71934855 115.69882815 -192.42564537 115.86455247 -180.13119303 116.05331966 C-167.46425292 116.2457216 -154.79882562 116.34572728 -142.13043416 116.36447549 C-134.33733556 116.37915147 -126.55210562 116.46634582 -118.7611139 116.6494858 C-112.7848145 116.78255018 -106.81512162 116.78812963 -100.83720016 116.74781227 C-98.39842631 116.75116672 -95.9592929 116.79528546 -93.52214813 116.8844738 C-82.41968345 117.31919363 -82.41968345 117.31919363 -72 114 C-65.84246355 108.03101624 -62.0443236 100.43761023 -58.36917901 92.78392553 C-56.64197527 89.27203515 -54.63275701 86.10503091 -52.45703125 82.85546875 C-51.84520996 81.90260986 -51.23338867 80.94975098 -50.60302734 79.96801758 C-50.01215332 79.05044678 -49.4212793 78.13287598 -48.8125 77.1875 C-43.6536368 69.15083109 -38.52052668 61.0992654 -33.43017578 53.01904297 C-30.28240967 48.0243895 -27.11728727 43.04116599 -23.94238281 38.0637207 C-15.88114082 25.42569399 -7.92511978 12.72375467 0 0 Z " fill="#000000" transform="translate(560,909)"/>
<path d="M0 0 C37.63929374 -1.85292629 75.18273453 10.38500529 103.21582031 35.73583984 C105.83724699 38.16026325 108.40524636 40.63665141 110.97412109 43.11669922 C111.62767578 43.70708984 112.28123047 44.29748047 112.95458984 44.90576172 C137.02545447 67.20418738 150.90162572 103.98149393 152.15380859 136.14404297 C153.12009239 175.83203903 140.69406025 213.69065146 113.21850586 242.71044922 C111.80665333 244.18202785 110.39055684 245.64953153 108.97412109 247.11669922 C108.38373047 247.77025391 107.79333984 248.42380859 107.18505859 249.09716797 C93.39491395 263.98345231 73.83180382 273.7250374 54.98876953 280.3984375 C53.25778666 281.01556687 51.5401814 281.66999357 49.82568359 282.33154297 C33.77210797 288.03422064 14.92012946 289.06225524 -2.02587891 288.11669922 C-2.71069336 288.08479492 -3.39550781 288.05289062 -4.10107422 288.02001953 C-41.56848276 286.00081787 -76.15067059 266.55732214 -101.02587891 239.11669922 C-106.61148637 232.68058349 -111.41488514 225.76743943 -115.83837891 218.49169922 C-116.36177856 217.63257935 -116.36177856 217.63257935 -116.89575195 216.75610352 C-126.43117167 200.55475064 -133.61862951 180.91182678 -135.02587891 162.11669922 C-135.13287109 161.05966797 -135.23986328 160.00263672 -135.35009766 158.91357422 C-139.0090851 119.56757932 -128.13251532 83.47319954 -103.71337891 52.49169922 C-79.80672482 24.27263643 -45.84722425 4.01420825 -8.53881836 0.53295898 C-5.69436911 0.3141552 -2.84794452 0.16405369 0 0 Z " fill="#000000" transform="translate(1096.02587890625,95.88330078125)"/>
<path d="M0 0 C3.05776803 1.52888401 3.62015367 4.42920969 4.84375 7.4609375 C5.26482025 8.48043236 5.26482025 8.48043236 5.69439697 9.52052307 C6.3092868 11.01155465 6.92105669 12.50387564 7.53015137 13.99728394 C8.51704602 16.41679064 9.51181174 18.83292279 10.50878906 21.24829102 C11.93846368 24.71261397 13.36545568 28.17802499 14.79101562 31.64404297 C18.04097651 39.53519054 21.33763437 47.40678012 24.63568115 55.27792358 C25.75539064 57.950366 26.87408493 60.62323177 27.99267578 63.29614258 C32.05483352 72.9983909 36.13287332 82.69382529 40.2265625 92.3828125 C40.65864014 93.40546707 41.09071777 94.42812164 41.53588867 95.48176575 C43.62459995 100.42410067 45.71499381 105.36571673 47.80761719 110.30639648 C48.56705763 112.1013996 49.32649775 113.89640284 50.0859375 115.69140625 C50.42372223 116.48753326 50.76150696 117.28366028 51.10952759 118.10391235 C52.82023748 122.14917026 54.49201028 126.20696892 56.11953735 130.28648376 C56.65052505 131.61662962 56.65052505 131.61662962 57.19223976 132.97364712 C57.45880064 133.64234357 57.72536152 134.31104002 58 135 C59.02576047 135.00238835 60.05152094 135.00477671 61.10836506 135.00723743 C86.0894784 135.06608207 111.07049568 135.14199565 136.05150318 135.23571491 C148.13222696 135.28064374 160.21292145 135.32006518 172.29370117 135.34643555 C182.82565718 135.36943915 193.35752028 135.4028637 203.88940257 135.44870156 C209.46381194 135.47260178 215.03812947 135.49135158 220.61258888 135.49761391 C225.86487504 135.50367917 231.11692631 135.52373128 236.36912537 135.55427551 C238.29149428 135.56303261 240.21389392 135.56678317 242.13628197 135.56500816 C251.84051416 135.55887976 260.76518553 135.60462339 270 139 C271.6396875 139.54720703 271.6396875 139.54720703 273.3125 140.10546875 C290.20489993 146.90662395 301.54669548 158.44615688 309.32421875 174.78125 C312.61081252 182.69839782 314.3763647 190.19583232 314.3125 198.75 C314.30758545 199.53713379 314.3026709 200.32426758 314.29760742 201.13525391 C314.16563554 207.75550473 313.17657273 213.7248004 311 220 C310.6596875 220.99386719 310.319375 221.98773437 309.96875 223.01171875 C303.49698824 240.08754962 291.49726145 251.49136326 275.25390625 259.32421875 C266.53576322 262.98284664 258.18290755 264.29972727 248.76651001 264.26069641 C247.27816227 264.26643473 247.27816227 264.26643473 245.75974691 264.27228898 C242.45517356 264.28255749 239.15077597 264.27863853 235.84619141 264.2746582 C233.46865174 264.27900807 231.09111347 264.28419214 228.71357727 264.29014587 C222.9378782 264.3021302 217.16223326 264.30469086 211.38652326 264.30234561 C206.68907722 264.30055845 201.99164526 264.30232061 197.2942009 264.30657005 C196.62418348 264.30716524 195.95416606 264.30776043 195.26384508 264.30837366 C193.90245093 264.30958548 192.54105678 264.31079961 191.17966263 264.31201603 C178.42859298 264.32287836 165.6775498 264.32073528 152.92647867 264.31463119 C141.27853472 264.30946318 129.63067444 264.32071673 117.98274703 264.33972941 C106.00313963 264.35913256 94.02357175 264.36735947 82.04394853 264.36360615 C75.32611874 264.36169787 68.60837067 264.3644121 61.89055252 264.37832069 C55.57201005 264.39091357 49.25363479 264.38894092 42.93509483 264.37590981 C40.62084967 264.3735477 38.30659267 264.37626555 35.99236107 264.38453293 C32.82386737 264.39503283 29.65593143 264.38687341 26.48745728 264.3742218 C25.58013717 264.38159609 24.67281707 264.38897037 23.73800242 264.39656812 C8.24476543 264.2671632 -7.90263734 257.15580396 -18.82421875 246.1640625 C-25.04731182 239.33350915 -29.65701283 231.89422696 -33.7578125 223.63671875 C-34.10771744 222.93399338 -34.45762238 222.23126801 -34.81813049 221.50724792 C-38.3583744 214.35001702 -41.66634249 207.09560638 -44.9375 199.8125 C-46.22873516 196.94843456 -47.52227298 194.08541319 -48.81640625 191.22265625 C-49.31624023 190.1160817 -49.31624023 190.1160817 -49.82617188 188.9871521 C-52.42402609 183.24614373 -55.06303668 177.52485265 -57.71484375 171.80859375 C-58.49946061 170.11419045 -59.28404746 168.41977325 -60.06860352 166.7253418 C-61.21464662 164.25072967 -62.36240143 161.77699174 -63.51583862 159.30581665 C-64.58563464 157.01334631 -65.64886686 154.71793229 -66.7109375 152.421875 C-67.03001572 151.74309799 -67.34909393 151.06432098 -67.67784119 150.36497498 C-70.95852823 143.23974956 -70.95852823 143.23974956 -71 140 C-69.88833387 137.06925757 -68.359865 134.40773927 -66.8125 131.6875 C-65.87637526 129.977946 -64.9429012 128.26693855 -64.01171875 126.5546875 C-63.51720215 125.65073242 -63.02268555 124.74677734 -62.51318359 123.81542969 C-59.94367534 119.03460212 -57.53717787 114.17409416 -55.125 109.3125 C-54.37464478 107.80623047 -54.37464478 107.80623047 -53.60913086 106.26953125 C-52.07082031 103.18064487 -50.53504182 100.09051196 -49 97 C-42.95140204 84.82230944 -36.87801126 72.66967624 -30.50732422 60.65673828 C-26.91276116 53.86926363 -23.46680183 47.01459696 -20.05810547 40.13232422 C-18.069539 36.12490854 -16.06456673 32.12568295 -14.0625 28.125 C-13.22259112 26.44534507 -12.38274743 24.76565754 -11.54296875 23.0859375 C-5.77148438 11.54296875 -5.77148438 11.54296875 0 0 Z " fill="#000000" transform="translate(1094,600)"/>
<path d="M0 0 C1.32 0 2.64 0 4 0 C3.1875 2.4375 3.1875 2.4375 2 5 C1.01 5.33 0.02 5.66 -1 6 C-0.67 4.02 -0.34 2.04 0 0 Z " fill="#E2E2E2" transform="translate(786,499)"/>
<path d="M0 0 C0.66 0.33 1.32 0.66 2 1 C0.515 3.475 0.515 3.475 -1 6 C-1.99 5.01 -2.98 4.02 -4 3 C-3 1 -3 1 0 0 Z " fill="#EBEBEB" transform="translate(654,718)"/>
</svg>
